<mxfile host="app.diagrams.net" modified="2024-01-13T14:31:14.568Z" agent="Mozilla/5.0 (Windows NT 10.0; Win64; x64) AppleWebKit/537.36 (KHTML, like Gecko) Chrome/114.0.0.0 Safari/537.36" version="22.1.18" etag="APPFOywbM_jITnSJ0C9U" type="github">
  <diagram name="第 1 页" id="awsZ11LKHAH2snAvU0Er">
    <mxGraphModel>
      <root>
        <mxCell id="0" />
        <mxCell id="1" parent="0" />
      </root>
    </mxGraphModel>
  </diagram>
</mxfile>
